<svg xmlns="http://www.w3.org/2000/svg" xmlns:xlink="http://www.w3.org/1999/xlink" width="300" zoomAndPan="magnify" viewBox="0 0 224.87999 149.999998" height="200" preserveAspectRatio="xMidYMid meet" version="1.0"><defs><g/><clipPath id="27d945cd64"><path d="M 156.472656 47.410156 L 169.230469 47.410156 L 169.230469 59.414062 L 156.472656 59.414062 Z M 156.472656 47.410156 " clip-rule="nonzero"/></clipPath><clipPath id="f94a80b49e"><path d="M 162.839844 47.410156 C 159.324219 47.410156 156.472656 50.097656 156.472656 53.414062 C 156.472656 56.726562 159.324219 59.414062 162.839844 59.414062 C 166.355469 59.414062 169.207031 56.726562 169.207031 53.414062 C 169.207031 50.097656 166.355469 47.410156 162.839844 47.410156 Z M 162.839844 47.410156 " clip-rule="nonzero"/></clipPath><clipPath id="ef63825d6c"><path d="M 0.472656 0.410156 L 13.230469 0.410156 L 13.230469 12.414062 L 0.472656 12.414062 Z M 0.472656 0.410156 " clip-rule="nonzero"/></clipPath><clipPath id="f7791ab477"><path d="M 6.839844 0.410156 C 3.324219 0.410156 0.472656 3.097656 0.472656 6.414062 C 0.472656 9.726562 3.324219 12.414062 6.839844 12.414062 C 10.355469 12.414062 13.207031 9.726562 13.207031 6.414062 C 13.207031 3.097656 10.355469 0.410156 6.839844 0.410156 Z M 6.839844 0.410156 " clip-rule="nonzero"/></clipPath><clipPath id="5a758a2ab3"><rect x="0" width="14" y="0" height="13"/></clipPath></defs><g fill="#000000" fill-opacity="1"><g transform="translate(5.64308, 97.281501)"><g><path d="M 30.96875 -7.703125 L 14.703125 -7.703125 L 12.109375 0 L 1 0 L 16.75 -43.5625 L 29.046875 -43.5625 L 44.8125 0 L 33.578125 0 Z M 28.234375 -15.890625 L 22.84375 -31.84375 L 17.5 -15.890625 Z M 28.234375 -15.890625 "/></g></g></g><g fill="#000000" fill-opacity="1"><g transform="translate(51.376042, 97.281501)"><g><path d="M 14.453125 -43.5625 L 14.453125 0 L 3.84375 0 L 3.84375 -43.5625 Z M 14.453125 -43.5625 "/></g></g></g><g fill="#000000" fill-opacity="1"><g transform="translate(69.681637, 97.281501)"><g><path d="M 2.046875 -21.84375 C 2.046875 -26.144531 2.976562 -29.984375 4.84375 -33.359375 C 6.707031 -36.734375 9.300781 -39.359375 12.625 -41.234375 C 15.957031 -43.117188 19.734375 -44.0625 23.953125 -44.0625 C 29.128906 -44.0625 33.554688 -42.695312 37.234375 -39.96875 C 40.921875 -37.238281 43.382812 -33.515625 44.625 -28.796875 L 32.953125 -28.796875 C 32.085938 -30.617188 30.859375 -32.003906 29.265625 -32.953125 C 27.671875 -33.898438 25.859375 -34.375 23.828125 -34.375 C 20.554688 -34.375 17.90625 -33.238281 15.875 -30.96875 C 13.851562 -28.695312 12.84375 -25.65625 12.84375 -21.84375 C 12.84375 -18.039062 13.851562 -15 15.875 -12.71875 C 17.90625 -10.445312 20.554688 -9.3125 23.828125 -9.3125 C 25.859375 -9.3125 27.671875 -9.785156 29.265625 -10.734375 C 30.859375 -11.691406 32.085938 -13.078125 32.953125 -14.890625 L 44.625 -14.890625 C 43.382812 -10.171875 40.921875 -6.457031 37.234375 -3.75 C 33.554688 -1.039062 29.128906 0.3125 23.953125 0.3125 C 19.734375 0.3125 15.957031 -0.628906 12.625 -2.515625 C 9.300781 -4.398438 6.707031 -7.015625 4.84375 -10.359375 C 2.976562 -13.710938 2.046875 -17.539062 2.046875 -21.84375 Z M 2.046875 -21.84375 "/></g></g></g><g fill="#000000" fill-opacity="1"><g transform="translate(116.965922, 97.281501)"><g><path d="M 35.1875 -43.5625 L 35.1875 -35.0625 L 23.640625 -35.0625 L 23.640625 0 L 13.03125 0 L 13.03125 -35.0625 L 1.484375 -35.0625 L 1.484375 -43.5625 Z M 35.1875 -43.5625 "/></g></g></g><g fill="#000000" fill-opacity="1"><g transform="translate(153.639163, 97.281501)"><g><path d="M 9.1875 -38.234375 C 7.320312 -38.234375 5.800781 -38.78125 4.625 -39.875 C 3.445312 -40.96875 2.859375 -42.320312 2.859375 -43.9375 C 2.859375 -45.59375 3.445312 -46.96875 4.625 -48.0625 C 5.800781 -49.164062 7.320312 -49.71875 9.1875 -49.71875 C 11.007812 -49.71875 12.507812 -49.164062 13.6875 -48.0625 C 14.863281 -46.96875 15.453125 -45.59375 15.453125 -43.9375 C 15.453125 -42.320312 14.863281 -40.96875 13.6875 -39.875 C 12.507812 -38.78125 11.007812 -38.234375 9.1875 -38.234375 Z M 14.453125 -34.625 L 14.453125 0 L 3.84375 0 L 3.84375 -34.625 Z M 14.453125 -34.625 "/></g></g></g><g fill="#000000" fill-opacity="1"><g transform="translate(171.944758, 97.281501)"><g><path d="M 32.765625 -29.796875 C 31.984375 -31.242188 30.859375 -32.347656 29.390625 -33.109375 C 27.921875 -33.878906 26.191406 -34.265625 24.203125 -34.265625 C 20.765625 -34.265625 18.007812 -33.132812 15.9375 -30.875 C 13.875 -28.625 12.84375 -25.613281 12.84375 -21.84375 C 12.84375 -17.832031 13.925781 -14.695312 16.09375 -12.4375 C 18.269531 -10.1875 21.265625 -9.0625 25.078125 -9.0625 C 27.679688 -9.0625 29.878906 -9.722656 31.671875 -11.046875 C 33.472656 -12.367188 34.789062 -14.269531 35.625 -16.75 L 22.15625 -16.75 L 22.15625 -24.578125 L 45.25 -24.578125 L 45.25 -14.703125 C 44.457031 -12.054688 43.117188 -9.59375 41.234375 -7.3125 C 39.359375 -5.039062 36.972656 -3.203125 34.078125 -1.796875 C 31.179688 -0.390625 27.910156 0.3125 24.265625 0.3125 C 19.960938 0.3125 16.125 -0.628906 12.75 -2.515625 C 9.382812 -4.398438 6.757812 -7.015625 4.875 -10.359375 C 2.988281 -13.710938 2.046875 -17.539062 2.046875 -21.84375 C 2.046875 -26.144531 2.988281 -29.984375 4.875 -33.359375 C 6.757812 -36.734375 9.375 -39.359375 12.71875 -41.234375 C 16.070312 -43.117188 19.898438 -44.0625 24.203125 -44.0625 C 29.421875 -44.0625 33.816406 -42.800781 37.390625 -40.28125 C 40.972656 -37.757812 43.34375 -34.265625 44.5 -29.796875 Z M 32.765625 -29.796875 "/></g></g></g><g clip-path="url(#27d945cd64)"><g clip-path="url(#f94a80b49e)"><g transform="matrix(1, 0, 0, 1, 156, 47)"><g clip-path="url(#5a758a2ab3)"><g clip-path="url(#ef63825d6c)"><g clip-path="url(#f7791ab477)"><path fill="#ff3131" d="M 0.472656 0.410156 L 13.230469 0.410156 L 13.230469 12.414062 L 0.472656 12.414062 Z M 0.472656 0.410156 " fill-opacity="1" fill-rule="nonzero"/></g></g></g></g></g></g></svg>